PathFileType	4	(X/Y/Z)	./resultDataOpenSim/trcMotMarkerGrf/sub06/qtm-12-05.trc
DataRate	CameraRate	NumFrames	NumMarkers	Units	OrigDataRate	OrigDataStartFrame	OrigNumFrames
250.000000	250.000000	10	24	m	250.000000	1	517
Frame#	Time	L.Toe.Tip			R.Toe.Tip			L.Ankle.Lat			R.Ankle.Lat			L.Ankle.Med			R.Ankle.Med			L.Heel			R.Heel			L.Knee.Lat			R.Knee.Lat			L.Knee.Med			R.Knee.Med			L.Thigh.Upper			R.Thigh.Upper			L.ASIS			R.ASIS			V.Sacral			L.Acromium			R.Acromium			C7			L.Elbow			R.Elbow			L.Wrist.Lat			R.Wrist.Lat
		X1	Y1	Z1	X2	Y2	Z2	X3	Y3	Z3	X4	Y4	Z4	X5	Y5	Z5	X6	Y6	Z6	X7	Y7	Z7	X8	Y8	Z8	X9	Y9	Z9	X10	Y10	Z10	X11	Y11	Z11	X12	Y12	Z12	X13	Y13	Z13	X14	Y14	Z14	X15	Y15	Z15	X16	Y16	Z16	X17	Y17	Z17	X18	Y18	Z18	X19	Y19	Z19	X20	Y20	Z20	X21	Y21	Z21	X22	Y22	Z22	X23	Y23	Z23	X24	Y24	Z24

1	0	-1.5594343	0.031666291	-0.12341744	-1.2697821	0.063609181	0.098119606	-1.6830844	0.06898726	-0.13079518	-1.3963374	0.10077739	0.09609019	-1.6708094	0.07804976	-0.045683932	-1.362471	0.11853377	0.014632989	NaN	NaN	NaN	-1.4414459	0.079076962	0.02245638	-1.5543832	0.4192265	-0.14528756	-1.3099782	0.48148699	0.1202297	-1.5644028	0.42101467	-0.024751235	-1.3221203	0.46673319	-0.0060275108	-1.5141837	0.80883124	-0.2096178	-1.4921817	0.80950429	0.14006781	-1.4341376	0.8515067	-0.16894596	-1.4085543	0.86041777	0.072907654	-1.6034737	0.94048403	-0.024487274	-1.4296946	1.3357364	-0.22253096	-1.4160802	1.3238502	0.13807946	-1.4992334	1.3722366	-0.039635325	-1.4964055	1.0209603	-0.2901918	-1.5365001	1.0316564	0.22232181	-1.2983548	0.86314203	-0.29754776	-1.3940694	0.82857678	0.22813135
2	0.004	-1.5594237	0.031621365	-0.12337368	-1.2507674	0.064473922	0.098105284	-1.6830454	0.069241329	-0.13061858	-1.378736	0.097620305	0.095595003	-1.6708146	0.07826138	-0.045615622	-1.3447231	0.11671941	0.014252803	NaN	NaN	NaN	-1.4224622	0.074947695	0.021815345	-1.552952	0.41895742	-0.14517607	-1.3026479	0.48125708	0.11948682	-1.5626932	0.42085774	-0.02469779	-1.3152723	0.46622583	-0.0067994801	-1.5089476	0.80767667	-0.20978901	-1.4857455	0.80886646	0.14042081	-1.4288425	0.85020439	-0.16913272	-1.4022389	0.85963872	0.072998223	-1.5974741	0.93935815	-0.02412803	-1.4240098	1.3349436	-0.22249128	-1.4110413	1.3225476	0.13830125	-1.494009	1.3714235	-0.039159843	-1.4881836	1.0196219	-0.29092481	-1.5333001	1.0309709	0.22177963	-1.2880995	0.86426507	-0.29667365	-1.3929793	0.82644438	0.22881533
3	0.008	-1.5594193	0.031584496	-0.12333654	-1.2317559	0.065459392	0.098050022	-1.6829914	0.069508558	-0.13045515	-1.3609413	0.094650341	0.095178095	-1.6708828	0.078498068	-0.045526373	-1.3270097	0.11499149	0.01392494	NaN	NaN	NaN	-1.4034422	0.070965892	0.021271048	-1.5514497	0.41867544	-0.14506361	-1.2953843	0.48095116	0.11875023	-1.5609978	0.42067518	-0.02464537	-1.3084817	0.46560768	-0.0075365599	-1.5036931	0.80653003	-0.20994089	-1.4793571	0.80817438	0.14075094	-1.423497	0.84888041	-0.16930055	-1.3960325	0.8587918	0.073086213	-1.5914353	0.93822129	-0.023684851	-1.418303	1.3340908	-0.22241938	-1.405998	1.3212134	0.13853915	-1.4886515	1.3705269	-0.03880357	-1.4798998	1.0182562	-0.2914754	-1.5300689	1.030231	0.22124535	-1.2778849	0.86536525	-0.29578133	-1.3919042	0.82432808	0.22950701
4	0.012	-1.5594283	0.031562479	-0.12331075	-1.2127467	0.06663508	0.097947168	-1.6829145	0.069791758	-0.13030936	-1.342923	0.09195207	0.094861857	-1.6710085	0.078767476	-0.0454162	-1.3093873	0.11340516	0.013702127	NaN	NaN	NaN	-1.3843489	0.067223978	0.020851026	-1.5498549	0.41838275	-0.1449617	-1.2882269	0.48051137	0.11803424	-1.5592968	0.42045462	-0.024599629	-1.3017527	0.46481568	-0.008242293	-1.4983863	0.80534288	-0.21004229	-1.4730481	0.80738045	0.14103162	-1.4180604	0.84752461	-0.16943162	-1.3901063	0.85780212	0.073142692	-1.5853263	0.9370498	-0.02316041	-1.4125508	1.3331412	-0.22229953	-1.4009362	1.3198268	0.13879806	-1.4831356	1.3695201	-0.038585575	-1.4715428	1.0168373	-0.29189355	-1.5267929	1.0294294	0.2207209	-1.2677187	0.86642673	-0.29486858	-1.3908786	0.82222867	0.23021206
5	0.016	-1.5594536	0.031554785	-0.12329626	-1.1937749	0.068017209	0.097809005	-1.6828039	0.070082701	-0.13018599	-1.3247717	0.089544074	0.09464122	-1.6711265	0.079056472	-0.045305999	-1.291964	0.11199073	0.013618175	NaN	NaN	NaN	-1.3652053	0.0637698	0.020532708	-1.5481888	0.41808714	-0.14488778	-1.2811939	0.47991214	0.11735684	-1.5575264	0.42020499	-0.024575611	-1.2950677	0.4638414	-0.0089418783	-1.4930173	0.80404579	-0.21004144	-1.4668202	0.80646536	0.14125571	-1.4125395	0.84614651	-0.16951887	-1.3846197	0.85661885	0.073136577	-1.5791089	0.93580584	-0.022665513	-1.4067537	1.3320958	-0.22214579	-1.3958482	1.3183803	0.13907457	-1.4775313	1.368421	-0.038471878	-1.4631572	1.0153506	-0.29238484	-1.5234727	1.0285772	0.22021039	-1.2576104	0.86743537	-0.29395015	-1.389912	0.82013319	0.23092692
6	0.02	-1.5594908	0.031552894	-0.12328917	-1.1748503	0.069608086	0.097644663	-1.6826275	0.070376128	-0.13011076	-1.3065354	0.087430702	0.094518693	-1.6711447	0.079350637	-0.045223064	-1.2747507	0.11077969	0.01364194	NaN	NaN	NaN	-1.3460547	0.060610785	0.020297282	-1.5464696	0.41778436	-0.14484545	-1.2742805	0.47914919	0.11672246	-1.5556226	0.41994344	-0.024587532	-1.2884133	0.46269534	-0.009641109	-1.4876241	0.80263664	-0.20991653	-1.4606212	0.80543478	0.14144447	-1.4069546	0.84476318	-0.16956137	-1.3794633	0.85526599	0.07308501	-1.5726759	0.93443233	-0.022394175	-1.4009267	1.3309756	-0.22199113	-1.3907181	1.3168654	0.13936549	-1.471902	1.3672539	-0.038418392	-1.4547743	1.0137939	-0.29306017	-1.5201007	1.027664	0.21972213	-1.2475642	0.86837631	-0.29303804	-1.3889617	0.81801785	0.23164313
7	0.024	-1.559531	0.031547559	-0.12328589	-1.1559645	0.071412986	0.097453111	-1.6823486	0.07068119	-0.13012074	-1.2882341	0.085601914	0.094493465	-1.6709869	0.079649032	-0.045185127	-1.2576235	0.10980763	0.01369175	NaN	NaN	NaN	-1.3269486	0.057708276	0.020168872	-1.5446972	0.41745674	-0.14482233	-1.2674969	0.47821809	0.11611259	-1.5535792	0.41967193	-0.024635399	-1.2817881	0.4613809	-0.010322635	-1.4822805	0.80119201	-0.20974815	-1.4543886	0.80429728	0.14162221	-1.401303	0.84338062	-0.16956114	-1.3742798	0.85382991	0.0730395	-1.565932	0.93289027	-0.022477695	-1.3950844	1.329796	-0.22186123	-1.3855244	1.3152709	0.13966791	-1.4662729	1.3660338	-0.038386924	-1.4463955	1.0121747	-0.29386889	-1.516668	1.0266735	0.21926682	-1.2375754	0.8692378	-0.29212709	-1.3879751	0.81586036	0.23235576
8	0.028	-1.559568	0.031534298	-0.12328442	-1.1371504	0.073424422	0.097215207	-1.6820091	0.071014126	-0.13019537	-1.2698997	0.084043603	0.094552479	-1.6706554	0.079955677	-0.045190602	-1.2404874	0.10909984	0.013730078	NaN	NaN	NaN	-1.3079351	0.055017683	0.020206091	-1.5428656	0.41708836	-0.14481295	-1.2608743	0.47711179	0.11549949	-1.551423	0.41937691	-0.024709386	-1.2751917	0.45989956	-0.010975883	-1.4770516	0.79977629	-0.20966503	-1.4480996	0.80306178	0.14180055	-1.395588	0.84198311	-0.16954924	-1.3688054	0.85238076	0.073018306	-1.5589824	0.93121586	-0.022775155	-1.3892242	1.3285586	-0.22175921	-1.3802627	1.3135977	0.13997885	-1.4606476	1.3647634	-0.038374545	-1.4380107	1.0105049	-0.29471519	-1.5131717	1.0256041	0.21885045	-1.2276352	0.87001899	-0.29120324	-1.3869309	0.81365542	0.23306421
9	0.032	-1.5596031	0.031513877	-0.12328306	-1.1184948	0.075612539	0.096904806	-1.681768	0.07137847	-0.13021644	-1.2515534	0.082767529	0.094686365	-1.670233	0.080273885	-0.045222045	-1.2233675	0.10866561	0.013787818	NaN	NaN	NaN	-1.2890452	0.052561718	0.020421029	-1.5409731	0.41667762	-0.14482856	-1.2544046	0.47584066	0.11487068	-1.549156	0.41905399	-0.024798577	-1.2686218	0.45827074	-0.011612771	-1.4719667	0.79839976	-0.20967016	-1.4417591	0.80174225	0.14197853	-1.3898627	0.84054036	-0.16961133	-1.3629875	0.85094239	0.073002746	-1.5521101	0.92950214	-0.022942309	-1.3833298	1.3272598	-0.22167204	-1.3749489	1.3118667	0.14029684	-1.4550183	1.3634448	-0.038389493	-1.429608	1.0087959	-0.29553582	-1.5096082	1.0244696	0.21846472	-1.2177394	0.87073245	-0.29026092	-1.3858343	0.81142213	0.23376682
10	0.036	-1.5596435	0.031489527	-0.12327984	-1.1000683	0.077950172	0.096513518	-1.6817371	0.071758894	-0.13009171	-1.2331812	0.081808911	0.094905844	-1.6698006	0.08061871	-0.045260048	-1.2063116	0.10848743	0.013886495	NaN	NaN	NaN	-1.2702951	0.050428308	0.020737427	-1.5390083	0.41622787	-0.14487754	-1.2479968	0.4744421	0.11423613	-1.5467795	0.41871455	-0.024891607	-1.262078	0.45652553	-0.012256916	-1.46699	0.79706127	-0.20957641	-1.4353623	0.80034478	0.14214269	-1.3842003	0.83902441	-0.16983947	-1.3568724	0.84950262	0.072992702	-1.5455068	0.92781699	-0.022775269	-1.377392	1.3258984	-0.22158671	-1.3695968	1.3101042	0.14061853	-1.4493657	1.3620891	-0.038395802	-1.4211786	1.007051	-0.29630694	-1.5059717	1.0232899	0.21809633	-1.2078915	0.87139238	-0.28930613	-1.384685	0.80918734	0.23445903
